<?xml version="1.0" standalone="no"?>
<!DOCTYPE svg PUBLIC "-//W3C//DTD SVG 20010904//EN"
 "http://www.w3.org/TR/2001/REC-SVG-20010904/DTD/svg10.dtd">
<svg version="1.0" xmlns="http://www.w3.org/2000/svg"
 width="300.000000pt" height="300.000000pt" viewBox="0 0 300.000000 300.000000"
 preserveAspectRatio="xMidYMid meet">
<metadata>
Created by potrace 1.10, written by Peter Selinger 2001-2011
</metadata>
<g transform="translate(0.000000,300.000000) scale(0.100000,-0.100000)"
fill="#000000" stroke="none">
<path d="M1133 2396 c-86 -40 -145 -150 -130 -243 4 -20 78 -201 166 -403 89
-202 166 -381 172 -396 10 -25 20 32 74 406 48 338 60 445 53 480 -26 144
-193 222 -335 156z m216 -43 c33 -19 49 -38 68 -80 24 -53 25 -58 14 -146 -29
-226 -90 -639 -96 -645 -2 -3 -21 30 -41 74 -20 43 -47 103 -60 132 -13 29
-24 55 -24 58 0 3 -11 29 -24 57 -13 29 -52 117 -86 196 -59 136 -62 148 -57
203 4 43 13 68 33 96 37 49 51 59 104 76 56 19 112 12 169 -21z"/>
<path d="M1702 2407 c-79 -29 -136 -103 -149 -192 l-6 -45 67 0 c99 0 137 -25
72 -48 -48 -18 -106 -77 -106 -110 0 -25 87 -656 93 -676 2 -5 9 6 17 25 8 19
85 198 173 399 139 319 159 372 159 420 2 96 -51 182 -137 221 -46 21 -133 24
-183 6z m178 -42 c60 -31 110 -116 110 -186 0 -28 -23 -95 -62 -179 -11 -25
-41 -92 -65 -150 -25 -58 -55 -127 -68 -155 -12 -27 -37 -84 -55 -125 -39 -92
-46 -100 -54 -63 -13 59 -66 450 -66 484 0 37 20 62 88 108 17 12 32 30 32 40
0 29 -42 58 -93 66 -27 3 -50 12 -53 20 -8 21 33 91 68 119 61 46 153 55 218
21z"/>
<path d="M718 2076 c-102 -28 -168 -118 -168 -230 0 -49 6 -71 30 -113 28 -49
52 -67 377 -285 191 -128 353 -236 359 -240 22 -15 -321 754 -356 795 -56 67
-155 97 -242 73z m147 -47 c53 -25 91 -66 118 -129 10 -25 27 -63 37 -85 10
-22 51 -114 90 -205 40 -91 83 -191 97 -223 14 -31 23 -60 20 -63 -6 -6 -93
45 -147 85 -14 10 -101 69 -195 131 -284 189 -297 202 -298 310 -1 148 144
242 278 179z"/>
<path d="M2188 2076 c-58 -16 -108 -49 -137 -92 -12 -18 -94 -196 -182 -396
-88 -200 -163 -369 -166 -376 -9 -21 670 438 714 483 159 162 -8 440 -229 381z
m142 -48 c24 -13 58 -40 74 -61 29 -36 31 -45 31 -117 0 -72 -2 -81 -31 -117
-28 -35 -474 -345 -566 -394 -51 -26 -51 -30 25 146 108 251 180 414 194 440
58 110 174 153 273 103z"/>
<path d="M504 1536 c-204 -95 -184 -383 32 -446 27 -7 163 -10 440 -8 l402 3
-336 224 c-184 124 -351 230 -371 237 -54 20 -111 16 -167 -10z m169 -30 c38
-15 548 -354 559 -370 14 -20 -45 -24 -358 -22 l-311 1 -58 30 c-70 36 -94 71
-102 150 -10 92 30 165 112 208 37 20 115 21 158 3z"/>
<path d="M2345 1541 c-22 -10 -190 -118 -373 -240 l-334 -222 429 3 c417 3
429 4 468 25 47 25 86 65 111 113 22 43 23 141 2 190 -52 120 -193 181 -303
131z m174 -41 c79 -40 117 -115 108 -208 -7 -66 -41 -114 -108 -152 l-44 -25
-325 -3 c-320 -2 -376 0 -366 17 6 10 491 334 551 368 51 29 130 31 184 3z"/>
<path d="M1479 1340 c-68 -20 -99 -60 -99 -127 0 -99 104 -163 191 -118 62 32
87 121 54 185 -24 46 -95 75 -146 60z m100 -49 c27 -25 31 -36 31 -78 0 -39
-5 -54 -23 -71 -46 -44 -105 -45 -150 -4 -70 63 -18 182 79 182 21 0 42 -10
63 -29z"/>
<path d="M2320 765 c0 -8 9 -15 20 -15 12 0 25 -10 32 -25 6 -14 19 -25 30
-25 23 0 23 7 -2 48 -15 25 -27 32 -50 32 -20 0 -30 -5 -30 -15z"/>
<path d="M1550 610 c0 -133 1 -140 20 -140 19 0 20 7 20 140 0 133 -1 140 -20
140 -19 0 -20 -7 -20 -140z"/>
<path d="M532 728 c-12 -6 -25 -22 -29 -36 -10 -41 6 -57 92 -94 43 -19 41
-52 -3 -56 -18 -2 -44 3 -56 11 -15 10 -27 12 -37 6 -11 -8 -10 -13 9 -29 56
-47 152 -28 152 29 0 48 -9 59 -60 76 -55 18 -73 34 -60 55 12 19 70 17 81 -3
11 -18 39 -12 39 9 0 17 -51 44 -82 43 -13 0 -33 -5 -46 -11z"/>
<path d="M852 623 c3 -102 5 -116 21 -119 15 -2 17 6 17 61 0 70 16 93 52 74
14 -8 18 -23 18 -73 0 -56 2 -64 18 -62 15 3 17 12 14 72 -4 87 -25 115 -72
97 l-30 -11 0 39 c0 33 -3 39 -20 39 -20 0 -21 -5 -18 -117z"/>
<path d="M1692 673 c3 -13 11 -17 29 -15 31 3 52 -18 43 -42 -5 -12 -16 -16
-37 -14 -23 2 -32 -2 -35 -15 -2 -10 4 -20 15 -23 10 -4 29 -17 43 -30 32 -29
73 -35 78 -11 2 9 -3 17 -10 17 -20 0 -54 27 -46 36 4 4 23 8 43 10 32 2 35 0
35 -24 0 -34 9 -47 38 -54 17 -5 22 -2 22 13 0 10 -4 19 -10 19 -6 0 -10 32
-10 75 0 68 -2 75 -20 75 -16 0 -20 -7 -20 -35 0 -46 -29 -47 -50 -2 -13 29
-20 32 -63 35 -43 3 -48 1 -45 -15z"/>
<path d="M2012 678 c-20 -20 -13 -38 24 -60 24 -14 32 -24 25 -31 -7 -7 -19
-4 -37 7 -19 13 -29 15 -37 7 -18 -18 23 -41 68 -38 37 2 40 4 40 32 0 23 -7
33 -30 44 l-30 15 24 6 c14 3 26 11 29 18 5 16 -60 16 -76 0z"/>
<path d="M2140 617 c0 -75 9 -99 43 -110 25 -9 34 20 12 37 -15 10 -17 24 -13
79 4 64 3 67 -19 67 -22 0 -23 -4 -23 -73z"/>
<path d="M2222 673 c2 -11 13 -18 28 -19 47 -1 51 -4 48 -26 -2 -19 -9 -23
-38 -23 -39 0 -56 -30 -23 -41 10 -4 29 -17 43 -29 34 -30 68 -38 72 -16 2 10
-7 21 -26 29 l-29 12 21 23 c47 50 17 107 -57 107 -35 0 -42 -3 -39 -17z"/>
<path d="M2382 608 c3 -77 5 -83 28 -95 21 -11 26 -10 31 5 4 10 0 20 -7 25
-10 6 -14 29 -14 77 0 64 -2 70 -20 70 -20 0 -21 -5 -18 -82z"/>
<path d="M709 661 c-18 -15 -21 -22 -12 -31 9 -10 16 -9 34 3 16 12 27 13 41
6 29 -15 21 -29 -17 -29 -37 0 -75 -28 -75 -55 0 -28 40 -58 68 -50 15 3 37 6
50 6 21 -1 22 3 22 64 0 52 -4 69 -20 85 -25 25 -61 26 -91 1z m81 -91 c0 -5
-11 -17 -26 -26 -28 -19 -51 -7 -41 20 7 17 67 23 67 6z"/>
<path d="M1047 664 c-23 -12 -26 -18 -17 -29 10 -12 15 -12 35 1 24 16 50 11
59 -12 4 -10 -3 -14 -27 -14 -67 0 -100 -56 -57 -95 14 -13 26 -15 47 -10 15
5 38 7 51 6 21 -2 22 1 22 59 0 51 -4 65 -25 85 -28 29 -48 31 -88 9z m73 -99
c0 -18 -34 -37 -54 -29 -19 7 -21 30 -3 37 26 11 57 7 57 -8z"/>
<path d="M1190 591 c0 -79 2 -89 18 -86 14 2 17 11 15 49 -3 56 10 86 37 86
13 0 20 7 20 20 0 21 -16 26 -39 11 -9 -6 -22 -6 -33 0 -17 9 -18 3 -18 -80z"/>
<path d="M1315 655 c-30 -30 -34 -92 -7 -124 48 -59 137 -21 137 59 0 77 -79
117 -130 65z m83 -27 c7 -7 12 -24 12 -38 0 -52 -61 -71 -82 -25 -23 51 32
101 70 63z"/>
<path d="M1930 608 c0 -56 21 -85 70 -98 51 -14 123 -3 116 17 -4 8 -6 16 -6
17 0 2 -24 1 -52 -1 -68 -6 -89 9 -91 62 -2 29 -7 41 -19 43 -15 3 -18 -4 -18
-40z"/>
</g>
</svg>
