<?xml version="1.0" standalone="no"?>
<!DOCTYPE svg PUBLIC "-//W3C//DTD SVG 20010904//EN"
 "http://www.w3.org/TR/2001/REC-SVG-20010904/DTD/svg10.dtd">
<svg version="1.0" xmlns="http://www.w3.org/2000/svg"
 width="300.000000pt" height="534.000000pt" viewBox="0 0 300.000000 534.000000"
 preserveAspectRatio="xMidYMid meet">
<metadata>
Created by potrace 1.10, written by Peter Selinger 2001-2011
</metadata>
<g transform="translate(0.000000,534.000000) scale(0.100000,-0.100000)"
fill="#000000" stroke="none">
<path d="M1238 4180 c-98 -17 -159 -41 -198 -76 -36 -32 -88 -99 -326 -418
-49 -65 -125 -167 -169 -226 -44 -58 -156 -219 -248 -357 l-169 -251 0 -62 c0
-34 3 -64 6 -67 3 -4 6 18 6 48 0 48 6 64 48 130 83 130 323 481 394 574 114
151 239 318 320 428 161 217 189 236 379 257 l104 12 170 -41 c94 -23 226 -48
295 -56 304 -37 382 -54 419 -95 14 -15 57 -99 95 -186 38 -87 87 -197 108
-243 21 -46 36 -86 34 -89 -7 -6 -102 143 -185 291 -91 160 -154 229 -232 251
-61 17 -368 49 -651 67 -316 20 -359 3 -511 -201 -151 -201 -227 -319 -310
-480 -88 -170 -181 -379 -173 -387 3 -3 22 32 43 78 59 135 194 396 256 495
84 136 298 416 332 436 67 38 152 51 290 44 274 -14 651 -49 720 -67 63 -17
139 -103 223 -252 67 -119 135 -225 217 -340 76 -106 68 -174 -26 -221 -87
-43 -203 -32 -251 25 l-26 31 20 39 c27 52 26 104 -2 134 -11 12 -101 68 -200
124 -98 55 -215 128 -261 162 -96 72 -150 99 -199 99 -39 0 -208 -67 -465
-184 -195 -89 -211 -103 -267 -228 -20 -46 -73 -161 -118 -257 -76 -166 -92
-207 -71 -186 5 6 64 127 130 269 106 229 157 316 182 316 4 0 92 39 196 86
248 114 376 164 416 164 41 0 96 -29 195 -102 42 -31 154 -100 247 -153 94
-53 180 -106 193 -118 40 -37 28 -110 -28 -164 -44 -43 -102 -57 -208 -50
-118 8 -203 36 -287 96 l-70 49 -45 -26 c-66 -38 -164 -104 -172 -116 -4 -6
-24 -51 -44 -101 -35 -87 -36 -95 -39 -230 -3 -149 -16 -259 -42 -338 -8 -27
-12 -51 -9 -54 6 -7 36 59 36 80 0 26 13 26 54 -2 77 -52 291 -170 372 -204
44 -19 107 -41 138 -48 39 -8 63 -20 72 -34 25 -39 94 -208 126 -310 34 -108
35 -111 44 -102 18 18 -104 348 -153 415 l-24 32 117 158 c64 86 119 160 123
164 4 4 27 -6 51 -22 25 -17 54 -30 65 -30 13 0 5 8 -24 23 -129 65 -135 208
-19 450 l52 108 58 -7 c77 -9 141 10 188 55 50 48 59 92 31 156 l-21 48 37 -6
c47 -8 118 -76 137 -132 8 -23 19 -125 26 -244 7 -113 18 -227 26 -255 41
-149 45 -169 39 -198 -4 -16 -42 -76 -84 -132 -124 -163 -185 -256 -223 -341
-34 -76 -127 -363 -163 -505 -63 -246 -257 -693 -385 -887 -52 -78 -59 -96
-37 -87 39 14 224 373 326 629 60 153 78 207 176 544 61 208 120 363 160 420
13 20 60 81 103 137 139 178 147 192 146 254 0 30 -10 84 -21 120 -27 82 -31
114 -43 330 -5 96 -15 193 -21 215 -7 26 -30 59 -64 93 -47 47 -56 52 -96 52
l-45 0 -43 108 c-74 182 -192 446 -213 475 -11 15 -32 33 -46 41 -41 21 -161
44 -322 62 -147 16 -267 38 -407 73 -92 24 -220 33 -285 21z m433 -907 c21
-16 39 -30 39 -34 0 -3 -33 -25 -74 -50 -71 -42 -76 -47 -97 -104 -11 -33 -36
-85 -54 -115 -27 -44 -36 -76 -49 -160 -12 -86 -49 -235 -61 -248 -1 -1 -15 3
-30 10 -22 10 -26 17 -21 38 14 72 28 252 23 304 -5 51 -1 73 30 155 19 53 41
102 49 110 20 22 177 120 192 120 8 1 31 -11 53 -26z m110 -67 c120 -55 315
-61 387 -14 l39 26 24 -27 c13 -15 32 -32 43 -38 17 -10 17 -12 -8 -52 -93
-146 -140 -348 -102 -436 12 -29 10 -32 -78 -145 -50 -63 -106 -139 -125 -168
-20 -32 -40 -52 -52 -52 -52 0 -241 85 -416 186 l-113 65 19 38 c24 45 45 130
62 236 9 60 23 100 54 160 24 44 46 95 50 113 5 26 17 39 59 63 29 16 61 38
71 49 23 25 22 25 86 -4z"/>
<path d="M1960 3410 c29 -40 63 -66 116 -86 34 -13 48 -14 56 -6 9 9 7 12 -10
12 -33 0 -92 33 -131 74 -42 44 -60 47 -31 6z"/>
<path d="M2350 3382 c0 -14 84 -89 118 -107 52 -25 61 -12 11 17 -24 15 -60
42 -78 62 -34 35 -51 44 -51 28z"/>
<path d="M131 2575 c-1 -79 7 -237 24 -485 18 -264 27 -521 30 -840 4 -338 23
-701 38 -717 17 -16 18 13 8 114 -7 59 -16 322 -21 583 -10 536 -23 805 -64
1280 -13 148 -14 151 -15 65z"/>
<path d="M1236 2443 c-13 -41 -26 -163 -26 -243 0 -47 11 -211 25 -365 48
-539 57 -701 52 -922 -2 -117 -1 -213 2 -213 9 0 10 11 17 223 7 203 -5 451
-36 754 -34 331 -46 580 -31 684 12 84 10 125 -3 82z"/>
</g>
</svg>
