<?xml version="1.0" standalone="no"?>
<!DOCTYPE svg PUBLIC "-//W3C//DTD SVG 20010904//EN"
 "http://www.w3.org/TR/2001/REC-SVG-20010904/DTD/svg10.dtd">
<svg version="1.0" xmlns="http://www.w3.org/2000/svg"
 width="300.000000pt" height="533.000000pt" viewBox="0 0 300.000000 533.000000"
 preserveAspectRatio="xMidYMid meet">
<metadata>
Created by potrace 1.10, written by Peter Selinger 2001-2011
</metadata>
<g transform="translate(0.000000,533.000000) scale(0.100000,-0.100000)"
fill="#000000" stroke="none">
<path d="M4 5000 c0 -162 2 -229 3 -147 2 81 2 213 0 295 -1 81 -3 14 -3 -148z"/>
<path d="M1692 4944 c-61 -30 -116 -96 -134 -158 -18 -65 -25 -283 -26 -826
-2 -568 0 -551 -69 -504 -52 35 -108 47 -188 41 -83 -6 -169 -37 -219 -79 -32
-26 -36 -34 -36 -78 l0 -48 -92 -4 c-76 -3 -104 -8 -153 -31 -73 -34 -130 -87
-156 -146 -21 -48 -27 -88 -8 -61 7 12 9 8 7 -15 -3 -28 -7 -30 -75 -46 -90
-20 -137 -50 -204 -131 -66 -79 -77 -106 -88 -220 -16 -156 -24 -709 -12 -872
14 -187 36 -256 163 -506 98 -192 202 -448 192 -473 -3 -9 3 -17 18 -21 45
-12 46 -8 21 72 -40 123 -78 212 -193 452 -60 124 -118 259 -129 300 -37 131
-50 404 -43 850 l4 195 17 -65 c10 -36 38 -99 63 -140 25 -41 70 -122 99 -179
69 -134 91 -151 191 -152 111 -1 149 23 184 115 l18 49 15 -24 c61 -91 127
-139 192 -139 64 0 96 14 146 63 54 52 63 81 59 192 -4 91 -17 150 -130 568
-52 192 -76 313 -76 388 0 47 4 59 28 82 84 81 295 94 387 24 19 -14 19 -16 2
-34 -14 -16 -17 -38 -17 -115 0 -123 18 -218 69 -354 35 -93 43 -131 56 -256
8 -81 15 -163 15 -182 0 -37 -24 -56 -38 -29 -8 14 -19 13 -103 -12 -200 -59
-203 -61 -147 -95 25 -15 50 -20 106 -20 l73 0 -59 -72 c-120 -148 -213 -317
-251 -458 -27 -103 -30 -144 -10 -148 13 -2 17 9 21 60 14 167 169 441 378
665 59 64 177 161 183 152 2 -2 9 -26 15 -54 28 -108 131 -271 188 -297 35
-16 42 -2 11 22 -31 24 -124 164 -155 232 -22 48 -42 116 -45 153 -1 13 3 19
13 16 55 -15 163 -31 168 -26 11 10 -16 21 -98 39 -94 20 -115 36 -191 139
-101 138 -170 345 -173 519 -1 73 2 91 20 115 28 38 128 105 147 97 9 -3 64
-64 123 -135 126 -154 229 -252 379 -364 169 -127 154 -94 165 -356 5 -123 17
-313 26 -422 27 -321 18 -356 -181 -722 -184 -338 -215 -426 -215 -616 0 -80
2 -89 18 -89 17 0 20 12 26 118 3 64 11 137 16 162 18 76 67 188 152 345 87
160 164 311 187 364 51 123 63 290 36 519 -8 67 -17 173 -20 235 -3 61 -8 164
-11 227 l-6 115 -46 43 c-26 24 -90 74 -142 111 l-95 68 -3 424 c-2 236 -7
426 -12 429 -5 3 -12 129 -15 280 -9 412 -20 571 -40 613 -37 79 -131 146
-206 147 -19 0 -59 -12 -87 -26z m146 -23 c63 -33 100 -80 112 -141 16 -82 30
-359 46 -875 3 -115 8 -225 9 -243 2 -19 6 -102 9 -185 4 -84 9 -204 12 -267
l6 -115 -72 70 c-40 39 -116 124 -169 190 -131 160 -137 165 -196 135 -29 -15
-34 -15 -23 -3 10 13 14 148 18 647 6 697 2 662 71 741 57 64 113 79 177 46z
m-797 -1791 c15 -69 43 -188 63 -265 56 -212 96 -398 111 -515 l13 -104 -29
-38 c-36 -45 -82 -74 -130 -83 -35 -6 -79 6 -79 23 0 8 201 88 213 84 4 -1 7
3 7 8 0 23 -30 19 -103 -15 -42 -19 -90 -38 -107 -42 -21 -4 -29 -10 -26 -19
19 -49 -66 47 -103 116 -16 30 -39 89 -51 130 -12 41 -53 172 -93 290 -69 211
-71 217 -71 322 -1 105 -1 107 29 138 59 62 165 100 270 97 l60 -2 26 -125z
m-407 -242 c10 -40 53 -181 96 -313 43 -132 81 -256 85 -276 8 -41 -7 -79 -31
-79 -17 0 -107 -44 -146 -71 -56 -40 -77 -24 -163 126 -109 189 -172 320 -179
371 -9 69 12 132 65 195 66 79 134 116 215 118 l41 1 17 -72z m1029 -210 c26
-32 52 -58 57 -58 6 0 10 -4 10 -10 0 -5 -23 -10 -51 -10 -28 0 -48 -4 -45 -9
4 -5 0 -11 -6 -14 -7 -2 13 -2 45 1 55 4 57 4 57 -19 0 -18 -14 -33 -50 -56
-27 -18 -52 -33 -54 -33 -2 0 -7 37 -11 83 -8 101 -25 199 -36 212 -5 5 -9 14
-9 20 0 5 11 -3 23 -20 12 -16 44 -56 70 -87z m-118 -258 c6 -10 -27 -42 -69
-67 -22 -13 -95 -15 -135 -4 -33 9 -39 31 -9 32 13 0 55 11 93 24 78 26 111
30 120 15z m-755 -241 c-14 -26 -82 -59 -122 -59 -41 0 -31 10 52 54 67 36 87
38 70 5z"/>
<path d="M1655 4240 c-4 -7 48 -10 149 -10 97 0 156 4 156 10 0 6 -56 10 -149
10 -89 0 -152 -4 -156 -10z"/>
<path d="M1694 3631 c-14 -14 20 -21 104 -21 102 0 172 8 172 19 0 7 -269 9
-276 2z"/>
<path d="M835 3191 c-55 -20 -140 -69 -132 -77 5 -6 197 84 197 91 0 8 -12 5
-65 -14z"/>
<path d="M1040 2434 c-36 -18 -82 -36 -102 -39 -21 -4 -41 -11 -44 -17 -13
-21 82 4 164 42 45 22 82 42 82 45 0 12 -39 0 -100 -31z"/>
<path d="M511 2894 c-53 -24 -185 -123 -176 -132 2 -2 52 27 110 66 58 39 111
72 118 75 7 2 10 7 7 10 -3 3 -30 -5 -59 -19z"/>
<path d="M665 2328 c-27 -11 -70 -29 -94 -40 -24 -10 -42 -20 -39 -23 7 -7
125 33 178 61 58 30 24 32 -45 2z"/>
<path d="M4 4375 c0 -121 2 -169 3 -107 2 62 2 161 0 220 -1 59 -3 8 -3 -113z"/>
<path d="M4 3900 c0 -91 2 -128 3 -82 2 45 2 119 0 165 -1 45 -3 8 -3 -83z"/>
<path d="M5 2405 c0 -731 1 -1029 2 -662 2 368 2 966 0 1330 -1 364 -2 64 -2
-668z"/>
<path d="M1223 3405 c-55 -15 -158 -63 -151 -71 3 -2 32 7 65 21 69 28 160 44
248 46 43 0 54 3 40 9 -31 13 -144 10 -202 -5z"/>
<path d="M1578 3384 c-10 -9 18 -99 47 -152 34 -63 81 -109 120 -117 27 -5 28
-5 10 7 -59 39 -155 192 -155 248 0 19 -11 26 -22 14z"/>
<path d="M1420 2579 c-47 -15 -97 -30 -112 -33 -43 -10 -34 -28 10 -20 62 10
195 58 200 72 5 15 6 15 -98 -19z"/>
<path d="M1450 1063 c0 -13 18 -24 68 -42 85 -30 232 -71 254 -71 34 0 18 28
-19 35 -50 9 -259 72 -284 85 -15 9 -19 7 -19 -7z"/>
<path d="M990 990 c-183 -47 -292 -78 -297 -84 -32 -31 167 9 401 81 33 10 61
24 64 31 5 17 -4 15 -168 -28z"/>
<path d="M4 600 c0 -85 2 -120 3 -77 2 42 2 112 0 155 -1 42 -3 7 -3 -78z"/>
</g>
</svg>
