<?xml version="1.0" standalone="no"?>
<!DOCTYPE svg PUBLIC "-//W3C//DTD SVG 20010904//EN"
 "http://www.w3.org/TR/2001/REC-SVG-20010904/DTD/svg10.dtd">
<svg version="1.0" xmlns="http://www.w3.org/2000/svg"
 width="300.000000pt" height="534.000000pt" viewBox="0 0 300.000000 534.000000"
 preserveAspectRatio="xMidYMid meet">
<metadata>
Created by potrace 1.10, written by Peter Selinger 2001-2011
</metadata>
<g transform="translate(0.000000,534.000000) scale(0.100000,-0.100000)"
fill="#000000" stroke="none">
<path d="M899 4957 c-19 -12 -48 -46 -65 -75 -29 -48 -32 -60 -38 -179 -3 -70
-7 -386 -7 -700 -1 -450 1 -576 11 -588 21 -26 3 -28 -29 -4 -24 18 -44 23
-93 23 -74 0 -109 -16 -181 -82 -56 -53 -87 -107 -87 -152 0 -28 -2 -30 -38
-30 -50 0 -129 -54 -183 -125 -37 -49 -42 -64 -52 -137 -6 -46 -11 -238 -11
-428 -1 -431 -3 -418 139 -710 57 -119 111 -243 120 -275 22 -81 30 -326 17
-505 -10 -129 -9 -146 5 -157 9 -7 19 -10 23 -8 4 3 11 118 15 257 10 366 8
375 -150 703 -138 286 -138 288 -140 728 0 185 0 337 1 337 2 0 8 -17 15 -37
7 -21 40 -85 74 -143 34 -58 80 -139 103 -180 59 -109 119 -160 187 -160 49 0
125 33 125 55 0 19 -14 20 -29 1 -6 -7 -31 -19 -55 -26 -36 -10 -48 -9 -73 3
-16 9 -35 23 -42 31 -8 9 -19 16 -25 16 -15 0 -38 37 -131 205 -133 240 -151
287 -125 335 6 10 48 44 95 76 47 31 84 59 81 62 -7 6 -103 -55 -148 -97 -57
-50 -48 -13 12 52 51 55 135 107 175 107 18 0 29 -27 94 -227 40 -126 85 -266
99 -313 13 -47 29 -86 33 -88 5 -2 9 -10 9 -18 0 -8 9 -23 20 -34 11 -11 20
-30 21 -42 1 -22 1 -22 9 2 8 24 8 24 9 2 2 -48 90 -54 177 -12 88 43 100 98
65 309 -11 64 -27 166 -36 226 -9 61 -28 180 -42 265 l-25 155 6 670 c3 368 8
697 11 730 8 79 21 109 62 145 28 25 42 30 84 30 64 0 115 -24 135 -63 18 -34
29 -215 38 -637 14 -621 28 -965 42 -979 7 -8 34 -16 61 -18 43 -4 51 -2 75
24 30 32 70 129 98 242 10 42 26 101 35 131 9 30 23 75 30 100 8 25 37 123 65
219 28 96 53 178 56 183 3 4 7 16 9 26 8 43 70 231 87 267 35 70 99 125 146
125 34 0 102 -53 123 -98 30 -61 21 -116 -87 -532 -56 -217 -152 -651 -174
-784 -29 -178 -41 -527 -21 -603 6 -21 24 -52 41 -68 25 -24 38 -29 74 -27 89
3 216 69 322 165 l52 47 11 -28 c14 -32 66 -92 81 -92 16 0 12 15 -11 36 -28
25 -59 87 -59 117 0 33 43 115 87 167 73 85 254 180 342 180 68 0 201 -102
217 -166 11 -45 -21 -88 -171 -228 -198 -185 -226 -216 -312 -346 -168 -253
-456 -625 -578 -745 -64 -63 -215 -164 -308 -206 -25 -11 -28 -17 -23 -48 3
-20 8 -128 12 -241 4 -113 8 -209 9 -215 1 -5 3 -16 3 -22 1 -7 9 -13 17 -13
18 0 19 24 1 295 -7 110 -11 205 -9 211 2 6 24 20 50 33 95 46 201 123 279
203 136 138 390 466 564 728 72 108 109 150 276 313 107 105 200 204 209 224
14 29 15 42 6 72 -24 81 -163 181 -250 181 -152 0 -369 -161 -432 -320 -26
-65 -62 -105 -147 -166 -90 -65 -165 -97 -230 -98 -51 -1 -56 1 -73 29 -15 26
-18 57 -18 230 0 110 4 232 10 270 5 39 12 97 15 130 3 33 11 83 19 110 7 28
30 127 50 220 54 256 65 306 80 355 7 25 23 86 34 135 12 50 26 106 31 125 30
115 62 299 57 338 -6 56 -48 110 -110 141 -102 51 -196 -14 -257 -176 -23 -61
-171 -546 -253 -828 -81 -277 -97 -310 -146 -299 -49 12 -50 15 -54 264 -9
448 -27 1096 -35 1218 -7 98 -12 128 -28 150 -51 69 -186 95 -255 49z m-154
-1574 c47 -23 71 -88 96 -268 20 -142 64 -431 76 -495 3 -19 6 -45 5 -57 -1
-71 -2 -75 -17 -69 -8 3 -14 2 -14 -2 3 -20 -4 -30 -40 -50 -48 -27 -95 -28
-118 -3 -10 10 -35 37 -56 59 -33 35 -45 61 -82 184 -24 79 -68 220 -98 313
-30 94 -57 181 -60 194 -12 52 50 132 143 185 53 30 113 34 165 9z"/>
<path d="M574 3314 c-44 -23 -133 -94 -118 -94 3 0 26 15 52 33 25 17 69 44
96 59 28 15 44 27 35 28 -9 0 -38 -12 -65 -26z"/>
<path d="M740 2588 c-52 -17 -89 -33 -82 -35 7 -3 51 7 96 21 110 34 116 34
116 -6 0 -18 5 -40 10 -48 8 -12 10 -9 10 11 0 15 -3 41 -6 58 -8 39 -20 39
-144 -1z"/>
<path d="M885 4350 c-10 -17 67 -32 150 -28 47 2 85 6 85 11 0 4 -37 7 -83 7
-45 0 -97 4 -114 9 -18 5 -35 6 -38 1z"/>
<path d="M1676 4031 c11 -11 155 -41 193 -41 42 1 6 16 -83 34 -89 18 -125 20
-110 7z"/>
<path d="M1012 3772 c-56 -2 -90 -7 -87 -12 8 -13 182 -13 190 -1 8 15 -3 16
-103 13z"/>
<path d="M1570 3576 c15 -14 140 -46 179 -46 38 0 22 18 -21 25 -24 4 -68 13
-98 21 -68 18 -78 18 -60 0z"/>
<path d="M1023 3277 c-59 -13 -55 -30 5 -21 53 7 60 11 46 22 -5 5 -28 4 -51
-1z"/>
<path d="M1376 3241 c-3 -5 20 -14 52 -20 31 -6 81 -22 110 -36 60 -28 72 -30
72 -14 0 14 -93 54 -158 68 -64 13 -69 13 -76 2z"/>
<path d="M1170 3053 c-58 -52 -124 -111 -147 -129 -41 -35 -74 -82 -36 -53
116 89 297 254 292 267 -2 6 -51 -32 -109 -85z"/>
<path d="M1395 2829 c-38 -11 -101 -29 -140 -41 -95 -28 -295 -127 -295 -146
0 -4 53 19 118 50 75 37 172 73 269 101 84 24 156 46 159 50 13 13 -40 6 -111
-14z"/>
<path d="M1421 2643 c-88 -43 -221 -199 -289 -337 -72 -145 -106 -274 -132
-491 -6 -49 -14 -100 -17 -112 -3 -13 -1 -23 5 -23 6 0 13 15 16 33 3 17 15
93 26 167 46 299 136 499 297 657 40 39 90 79 112 89 22 10 38 21 35 26 -7 11
-14 10 -53 -9z"/>
<path d="M513 2499 c-32 -16 -64 -37 -72 -44 -21 -21 -5 -31 17 -12 10 9 44
29 76 46 32 16 53 32 48 35 -6 3 -36 -8 -69 -25z"/>
<path d="M715 1477 c-99 -22 -182 -41 -184 -43 -19 -16 33 -11 187 20 99 20
183 36 186 36 3 0 6 7 6 15 0 8 -3 14 -7 14 -5 -1 -89 -19 -188 -42z"/>
<path d="M1045 1501 c8 -14 299 -121 328 -121 29 0 -21 24 -159 74 -152 56
-180 64 -169 47z"/>
</g>
</svg>
