<?xml version="1.0" standalone="no"?>
<!DOCTYPE svg PUBLIC "-//W3C//DTD SVG 20010904//EN"
 "http://www.w3.org/TR/2001/REC-SVG-20010904/DTD/svg10.dtd">
<svg version="1.0" xmlns="http://www.w3.org/2000/svg"
 width="300.000000pt" height="534.000000pt" viewBox="0 0 300.000000 534.000000"
 preserveAspectRatio="xMidYMid meet">
<metadata>
Created by potrace 1.10, written by Peter Selinger 2001-2011
</metadata>
<g transform="translate(0.000000,534.000000) scale(0.100000,-0.100000)"
fill="#000000" stroke="none">
<path d="M1299 4557 c-18 -12 -44 -40 -56 -62 -35 -62 -41 -104 -78 -570 -8
-104 -20 -233 -25 -285 -5 -52 -15 -176 -21 -275 -13 -222 -18 -249 -46 -253
-17 -3 -21 4 -26 36 -7 43 -33 299 -47 467 -24 287 -57 547 -77 612 -41 131
-169 164 -268 69 l-45 -43 0 -129 c0 -124 24 -448 55 -754 25 -249 37 -402 31
-407 -19 -19 -44 41 -145 349 -62 188 -127 369 -144 401 -50 95 -113 125 -183
89 -91 -47 -111 -97 -84 -209 15 -63 178 -551 243 -728 24 -67 36 -170 47
-415 12 -266 31 -426 62 -508 11 -32 47 -113 80 -182 33 -69 76 -163 96 -210
l37 -85 0 -205 c-1 -113 -4 -235 -8 -273 -6 -54 -5 -67 6 -67 19 0 26 59 33
302 8 232 3 257 -83 438 -110 229 -131 277 -147 331 -22 73 -43 289 -56 571
l-11 233 -55 160 c-143 412 -234 689 -234 711 0 61 64 124 126 124 37 0 78
-30 100 -72 17 -33 142 -391 221 -631 l48 -149 34 6 c18 3 36 8 39 11 8 8 -12
304 -42 620 -35 371 -48 578 -40 633 17 113 170 161 233 73 11 -15 27 -59 35
-97 16 -73 23 -140 91 -829 27 -271 24 -260 65 -263 63 -5 69 7 80 158 5 74
14 182 20 240 6 58 15 164 20 235 28 363 60 684 72 719 7 22 27 54 44 73 26
28 38 33 76 33 51 0 105 -30 125 -70 15 -31 17 -233 3 -475 -5 -93 -14 -300
-20 -460 -5 -159 -13 -334 -16 -387 l-6 -97 42 -11 c78 -21 103 5 167 170 83
217 103 272 153 403 28 76 55 148 60 160 5 12 30 78 56 147 55 146 83 194 123
215 53 27 90 20 133 -25 35 -38 38 -45 38 -99 0 -58 -32 -161 -115 -371 -63
-159 -157 -434 -206 -599 -37 -123 -52 -192 -59 -275 -21 -238 -9 -359 38
-377 27 -11 109 2 166 26 48 20 146 97 184 144 38 48 47 50 56 15 8 -29 48
-74 67 -74 7 0 4 9 -8 23 -26 28 -53 81 -53 104 0 42 58 139 114 190 152 139
303 150 414 30 69 -76 71 -73 -157 -297 l-199 -195 -78 -160 c-88 -183 -107
-211 -265 -395 -180 -210 -247 -268 -437 -380 -49 -29 -70 -46 -64 -54 5 -6
10 -47 11 -91 3 -182 20 -365 33 -365 7 0 8 65 3 202 -5 112 -8 216 -9 231 -1
26 9 35 94 89 145 91 218 155 347 304 181 209 238 288 284 394 87 200 105 222
377 483 112 108 136 143 126 183 -8 31 -88 115 -135 140 -45 24 -149 25 -208
1 -118 -48 -225 -152 -256 -249 -14 -41 -34 -70 -94 -131 -87 -89 -165 -133
-251 -143 -53 -6 -56 -5 -68 20 -15 34 -16 187 -1 331 16 158 86 392 256 855
112 303 135 387 122 434 -10 35 -62 91 -103 113 -56 29 -130 -7 -180 -86 -25
-38 -117 -271 -214 -541 -140 -385 -176 -468 -208 -476 -42 -11 -59 -1 -63 36
-2 19 4 193 13 385 25 527 35 904 27 957 -9 54 -30 82 -83 109 -51 26 -107 24
-149 -4z"/>
<path d="M1255 4010 c3 -5 44 -10 91 -10 49 0 84 4 84 10 0 6 -37 10 -91 10
-57 0 -88 -4 -84 -10z"/>
<path d="M771 3877 c-30 -7 -56 -17 -58 -23 -3 -8 13 -8 54 2 32 8 78 14 103
15 38 1 41 2 20 9 -34 11 -55 10 -119 -3z"/>
<path d="M1912 3766 c11 -12 168 -64 168 -56 0 11 -96 51 -139 57 -20 3 -33 3
-29 -1z"/>
<path d="M1326 3509 c-112 -12 -116 -19 -9 -16 57 1 97 7 105 15 9 9 9 12 -2
11 -8 -1 -51 -5 -94 -10z"/>
<path d="M797 3473 c-40 -11 -55 -19 -48 -26 7 -7 19 -6 38 1 15 6 45 14 66
18 42 7 61 25 25 23 -13 -1 -49 -8 -81 -16z"/>
<path d="M331 3453 c-51 -18 -69 -28 -59 -34 9 -5 42 2 86 20 122 47 101 58
-27 14z"/>
<path d="M1770 3366 c0 -7 136 -76 150 -76 23 0 -4 22 -55 45 -65 28 -95 38
-95 31z"/>
<path d="M430 3194 c-79 -27 -87 -31 -78 -39 3 -3 44 7 92 23 47 15 83 31 80
35 -10 10 -10 10 -94 -19z"/>
<path d="M1235 3100 c64 -12 145 -18 145 -10 0 9 -89 20 -145 19 l-40 -1 40
-8z"/>
<path d="M873 3061 c-35 -9 -63 -20 -63 -25 0 -10 46 -2 125 23 77 25 29 26
-62 2z"/>
<path d="M1625 3028 c17 -6 61 -23 99 -39 69 -30 102 -36 91 -20 -9 16 -162
71 -192 70 l-28 -1 30 -10z"/>
<path d="M1410 2899 c-52 -45 -223 -128 -430 -210 -174 -68 -215 -87 -207 -95
4 -4 134 42 267 96 201 81 420 202 420 231 0 15 -14 9 -50 -22z"/>
<path d="M515 2893 c-57 -28 -60 -31 -53 -38 5 -5 138 53 138 61 0 10 -40 0
-85 -23z"/>
<path d="M1547 2685 c-124 -49 -262 -116 -380 -186 -107 -64 -237 -157 -237
-171 0 -11 18 -10 25 2 7 11 176 123 271 179 78 46 356 176 398 187 28 7 46
24 24 24 -7 -1 -53 -16 -101 -35z"/>
<path d="M1619 2548 c-106 -70 -228 -200 -277 -294 -53 -102 -97 -238 -111
-338 -14 -98 -14 -236 -1 -236 6 0 10 30 10 69 0 106 18 216 52 321 66 206
146 317 319 446 49 36 89 68 89 70 0 11 -24 0 -81 -38z"/>
<path d="M980 1510 c-178 -37 -200 -43 -200 -51 0 -5 6 -9 13 -9 31 0 323 62
332 71 14 14 -49 10 -145 -11z"/>
<path d="M1280 1512 c0 -8 239 -92 262 -92 30 0 -16 22 -124 60 -123 42 -138
45 -138 32z"/>
</g>
</svg>
