<?xml version="1.0" standalone="no"?>
<!DOCTYPE svg PUBLIC "-//W3C//DTD SVG 20010904//EN"
 "http://www.w3.org/TR/2001/REC-SVG-20010904/DTD/svg10.dtd">
<svg version="1.0" xmlns="http://www.w3.org/2000/svg"
 width="300.000000pt" height="534.000000pt" viewBox="0 0 300.000000 534.000000"
 preserveAspectRatio="xMidYMid meet">
<metadata>
Created by potrace 1.10, written by Peter Selinger 2001-2011
</metadata>
<g transform="translate(0.000000,534.000000) scale(0.100000,-0.100000)"
fill="#000000" stroke="none">
<path d="M1505 4910 c-35 -14 -93 -87 -106 -132 -15 -57 -26 -184 -44 -538 -8
-162 -22 -420 -30 -573 -8 -153 -15 -338 -15 -412 l0 -135 -27 6 c-68 17 -68
17 -82 106 -51 342 -132 841 -166 1023 -14 72 -31 159 -37 194 -21 112 -74
161 -173 161 -73 0 -118 -16 -164 -58 -62 -56 -70 -108 -48 -310 10 -86 27
-211 37 -277 11 -66 29 -187 40 -270 12 -82 32 -220 46 -305 13 -85 27 -171
29 -190 l5 -35 -86 -40 c-99 -45 -178 -115 -240 -210 -37 -58 -39 -63 -38
-140 2 -190 24 -562 39 -671 52 -377 94 -598 132 -688 13 -34 58 -125 99 -203
70 -135 75 -147 85 -240 8 -68 9 -142 2 -243 -5 -80 -6 -149 -1 -155 22 -26
29 22 31 216 2 233 -7 284 -69 389 -105 179 -143 291 -188 549 -58 328 -68
416 -76 666 -5 132 -15 275 -23 318 -10 53 -12 89 -6 111 21 77 133 211 220
263 70 42 229 99 301 108 53 7 63 4 155 -38 118 -54 281 -106 343 -109 l45 -3
-46 -21 c-51 -24 -79 -69 -79 -128 0 -45 -22 -61 -108 -76 -70 -12 -126 -5
-257 34 -106 32 -135 38 -135 28 0 -5 25 -14 55 -21 51 -11 54 -14 44 -33 -14
-25 -83 -56 -146 -64 -26 -4 -55 -10 -63 -15 -20 -11 50 -11 106 0 l42 8 -38
-83 c-22 -47 -33 -81 -25 -78 12 5 53 88 69 139 4 11 23 37 43 59 l36 39 86
-22 c106 -26 159 -26 231 -1 30 10 56 18 56 17 1 -1 4 -21 5 -44 3 -39 1 -43
-43 -75 -138 -98 -375 -283 -367 -286 12 -5 211 136 324 229 l94 78 20 -62
c12 -34 46 -99 77 -144 l56 -82 -38 -44 c-22 -25 -55 -76 -75 -113 -19 -38
-47 -89 -62 -114 -37 -64 -93 -239 -111 -345 -14 -86 -21 -252 -18 -437 2 -81
4 -88 22 -88 24 0 24 10 10 180 -17 204 13 417 86 622 30 83 80 173 152 271
l49 67 47 -50 c55 -58 61 -73 88 -205 20 -96 20 -103 3 -205 -9 -58 -19 -113
-21 -122 -4 -12 0 -18 10 -18 9 0 16 7 16 16 0 8 12 56 26 106 30 103 28 127
-16 275 -27 91 -68 166 -94 176 -7 3 -41 40 -75 82 -103 129 -136 215 -136
357 0 99 14 127 81 165 72 42 85 36 208 -90 61 -63 136 -132 166 -154 99 -73
127 -106 185 -223 30 -62 88 -161 127 -219 99 -145 107 -172 108 -352 0 -259
-33 -370 -235 -794 -44 -92 -58 -133 -69 -195 -9 -51 7 -26 44 70 35 91 182
382 209 414 15 18 15 19 -3 13 -13 -5 -17 -3 -13 5 88 200 123 429 97 630 -14
105 -9 188 26 453 49 368 81 504 309 1320 99 355 99 442 0 534 -50 46 -78 56
-138 47 -55 -8 -102 -37 -127 -78 -19 -31 -87 -233 -325 -973 -53 -165 -106
-321 -117 -347 -20 -46 -22 -48 -62 -48 -72 0 -74 6 -82 175 -3 83 0 440 7
795 13 685 10 759 -31 839 -27 54 -86 81 -171 80 -35 0 -73 -4 -84 -9z m178
-37 c19 -11 42 -38 56 -66 l23 -47 -1 -855 c-2 -833 -2 -854 17 -873 25 -25
89 -36 124 -23 15 6 34 23 42 40 23 44 103 282 232 691 139 437 200 617 220
648 40 62 139 81 200 40 18 -12 44 -40 59 -63 26 -38 27 -44 22 -135 -5 -75
-20 -145 -72 -335 -200 -726 -249 -920 -280 -1105 -33 -204 -45 -306 -53 -452
l-7 -127 -60 95 c-33 53 -94 159 -135 237 l-75 142 -120 102 c-112 96 -185
167 -245 239 -24 29 -31 31 -115 37 -50 4 -111 14 -136 23 l-46 15 4 137 c6
211 57 1167 73 1377 12 164 38 233 100 267 43 23 124 19 173 -9z m-759 -322
c34 -32 55 -129 131 -601 19 -118 37 -226 41 -240 3 -14 23 -135 43 -270 21
-135 42 -254 46 -264 10 -22 9 -22 -100 19 -59 23 -80 26 -132 21 -34 -4 -81
-13 -104 -21 -23 -8 -44 -15 -48 -15 -4 0 -12 44 -19 98 -6 53 -23 171 -37
262 -110 711 -128 913 -89 968 11 15 40 37 65 50 61 32 165 28 203 -7z"/>
<path d="M1475 4271 c16 -19 30 -21 132 -21 69 0 113 4 113 10 0 6 -41 10
-104 10 -58 0 -117 5 -132 11 -28 10 -28 10 -9 -10z"/>
<path d="M2298 3870 c26 -21 129 -56 196 -66 62 -10 33 12 -43 31 -35 9 -84
25 -108 36 -57 24 -75 24 -45 -1z"/>
<path d="M1550 3665 l-115 -12 106 -2 c114 -1 172 6 163 20 -3 5 -13 8 -22 8
-9 -1 -69 -7 -132 -14z"/>
<path d="M2180 3381 c0 -15 26 -26 119 -50 92 -23 111 -25 111 -13 0 4 -46 20
-103 35 -56 16 -108 31 -114 34 -7 2 -13 0 -13 -6z"/>
<path d="M2029 2986 c11 -13 152 -76 171 -76 23 0 7 17 -27 29 -21 8 -60 24
-87 37 -56 27 -74 30 -57 10z"/>
<path d="M910 4059 c-47 -10 -102 -18 -123 -19 -26 0 -37 -4 -35 -12 3 -8 20
-11 48 -9 55 4 191 38 204 51 12 12 14 12 -94 -11z"/>
<path d="M1052 3579 c-13 -5 -65 -17 -115 -26 -71 -14 -84 -19 -56 -21 42 -4
178 23 193 38 14 14 4 19 -22 9z"/>
<path d="M1310 2964 c-30 -31 -64 -59 -76 -64 -25 -10 -108 5 -147 26 -40 23
-45 10 -5 -14 36 -22 100 -42 136 -42 26 0 107 72 135 119 10 17 17 31 15 31
-2 0 -28 -25 -58 -56z"/>
<path d="M1503 2981 c-71 -33 -78 -82 -28 -182 25 -48 74 -113 81 -106 3 2
-11 29 -29 60 -40 65 -62 136 -53 170 3 15 20 30 46 42 23 10 43 22 46 27 9
13 -19 9 -63 -11z"/>
<path d="M1399 2560 c-25 -15 -92 -100 -77 -100 13 1 103 98 97 105 -2 2 -11
-1 -20 -5z"/>
<path d="M495 2550 c4 -6 60 -10 142 -10 75 0 134 2 132 4 -2 2 -66 6 -142 10
-94 4 -136 3 -132 -4z"/>
<path d="M1500 1205 c0 -14 303 -139 322 -133 17 6 -63 47 -191 98 -94 37
-131 47 -131 35z"/>
<path d="M1165 1148 c-50 -11 -196 -54 -252 -75 -45 -16 -59 -35 -20 -26 41
10 312 94 316 99 10 9 -6 10 -44 2z"/>
</g>
</svg>
