<?xml version="1.0" standalone="no"?>
<!DOCTYPE svg PUBLIC "-//W3C//DTD SVG 20010904//EN"
 "http://www.w3.org/TR/2001/REC-SVG-20010904/DTD/svg10.dtd">
<svg version="1.0" xmlns="http://www.w3.org/2000/svg"
 width="300.000000pt" height="533.000000pt" viewBox="0 0 300.000000 533.000000"
 preserveAspectRatio="xMidYMid meet">
<metadata>
Created by potrace 1.10, written by Peter Selinger 2001-2011
</metadata>
<g transform="translate(0.000000,533.000000) scale(0.100000,-0.100000)"
fill="#000000" stroke="none">
<path d="M811 4667 c-44 -17 -77 -57 -92 -110 -17 -61 2 -225 50 -432 21 -93
60 -269 85 -390 63 -297 104 -469 129 -535 30 -76 34 -36 8 72 -10 45 -35 157
-55 248 -20 91 -43 192 -51 225 -24 96 -104 470 -126 584 -25 138 -25 196 4
251 26 54 75 75 146 66 103 -14 102 -10 307 -829 92 -363 178 -621 197 -589 4
5 -2 36 -14 68 -21 62 -21 139 2 308 16 118 82 175 202 176 75 0 107 -16 277
-145 96 -72 141 -113 150 -135 17 -40 2 -53 -50 -45 -19 2 -45 5 -57 5 -33 0
-28 20 7 33 17 6 30 15 30 19 0 14 -16 9 -54 -17 -21 -14 -51 -25 -69 -25 -42
0 -131 44 -157 77 -11 15 -23 24 -26 21 -3 -3 8 -21 25 -40 26 -30 67 -54 123
-72 15 -4 9 -14 -31 -51 l-48 -45 -56 19 c-77 27 -94 37 -154 94 -68 64 -82
53 -17 -14 52 -54 93 -79 163 -100 50 -15 59 -29 41 -67 -8 -18 -11 -73 -10
-159 l1 -133 -34 0 c-54 0 -188 -39 -247 -72 -58 -32 -154 -108 -146 -115 2
-2 35 17 72 43 38 26 88 55 111 65 52 22 242 74 248 67 3 -2 23 -65 45 -139
30 -98 42 -160 47 -229 6 -95 6 -96 -20 -107 -88 -40 -173 -182 -208 -345 -24
-113 -37 -342 -20 -352 8 -5 11 10 11 51 1 164 38 359 91 470 28 59 120 173
140 173 5 0 9 -24 9 -52 1 -93 77 -388 101 -388 13 0 11 21 -7 71 -40 114 -56
207 -63 384 -8 163 -11 189 -40 275 -58 176 -63 207 -59 373 3 170 5 176 79
234 38 30 48 33 108 32 82 -1 102 -7 139 -40 l29 -26 6 -160 c5 -123 13 -183
32 -258 30 -116 50 -157 125 -255 31 -41 67 -94 79 -118 35 -68 45 -197 31
-392 -14 -196 -38 -297 -117 -495 -51 -129 -56 -148 -60 -240 -7 -130 15 -647
27 -659 23 -23 29 11 20 99 -5 50 -10 216 -12 370 l-3 280 58 153 c107 285
135 447 122 722 -6 127 -3 165 19 305 13 88 27 185 31 215 18 154 89 485 216
1010 79 326 84 375 41 438 -62 93 -136 115 -218 67 -56 -33 -83 -80 -138 -241
-44 -127 -64 -193 -187 -612 l-62 -213 -24 23 c-21 21 -22 27 -12 57 16 45 2
62 -160 193 -167 134 -184 143 -286 143 -69 0 -86 -4 -127 -28 -83 -48 -104
-97 -115 -265 -4 -74 -9 -99 -16 -87 -5 10 -26 92 -47 184 -36 157 -58 244
-166 661 -77 298 -97 347 -154 387 -29 20 -127 26 -169 10z m1772 -221 c19 -7
49 -33 68 -57 33 -42 34 -47 32 -119 -1 -46 -16 -132 -38 -220 -81 -332 -149
-627 -186 -810 -42 -203 -99 -566 -99 -625 0 -44 -12 -44 -33 -1 -9 19 -37 63
-63 98 -105 143 -132 228 -146 469 l-12 186 93 304 c128 419 190 617 207 664
20 52 49 83 99 106 48 22 39 22 78 5z"/>
<path d="M2351 3995 c17 -17 227 -80 237 -71 6 7 -5 11 -120 45 -51 16 -102
32 -113 36 -19 7 -19 7 -4 -10z"/>
<path d="M2270 3561 c40 -21 169 -56 177 -48 11 12 -10 27 -37 27 -15 0 -57 9
-92 20 -78 24 -94 25 -48 1z"/>
<path d="M2150 3138 c19 -19 129 -62 137 -54 6 6 -81 48 -127 61 -22 6 -23 5
-10 -7z"/>
<path d="M985 4109 c-44 -10 -87 -20 -95 -21 -13 -3 -13 -4 0 -9 18 -7 141 17
184 36 44 19 9 17 -89 -6z"/>
<path d="M333 3999 c-18 -5 -48 -25 -69 -44 -37 -35 -37 -35 -32 -102 4 -52
19 -101 62 -208 119 -291 275 -628 389 -842 32 -58 66 -192 82 -318 4 -27 13
-75 20 -105 8 -30 21 -104 30 -165 37 -246 52 -302 118 -425 157 -294 188
-381 190 -538 1 -59 -2 -182 -6 -273 -7 -144 -6 -166 7 -166 19 0 29 112 30
357 1 179 0 188 -28 275 -16 50 -74 176 -127 281 -110 215 -99 173 -185 674
-51 302 -64 346 -138 480 -71 127 -163 327 -309 670 -111 262 -125 307 -107
350 17 42 85 80 141 80 40 0 48 -4 100 -60 94 -98 139 -172 375 -623 93 -177
118 -217 136 -217 4 0 8 11 8 25 0 14 -4 25 -9 25 -14 0 -62 82 -166 285 -184
360 -304 538 -389 579 -37 18 -74 19 -123 5z"/>
<path d="M569 3580 c-79 -47 -118 -85 -54 -53 63 33 151 93 135 93 -8 0 -45
-18 -81 -40z"/>
<path d="M1145 3600 c-33 -11 -70 -20 -82 -20 -12 0 -25 -4 -28 -10 -3 -5 4
-10 15 -10 33 0 160 41 160 51 0 5 -1 9 -2 8 -2 0 -30 -9 -63 -19z"/>
<path d="M1970 3369 c-137 -23 -152 -41 -156 -188 -2 -58 0 -95 4 -81 5 19 8
13 13 -30 4 -40 6 -20 7 72 1 71 7 138 13 152 12 26 32 35 127 56 28 7 52 16
52 21 0 5 -1 8 -2 8 -2 -1 -28 -5 -58 -10z"/>
<path d="M730 3275 c-13 -14 -44 -35 -69 -47 -25 -12 -40 -23 -33 -26 20 -6
95 37 120 68 28 36 15 40 -18 5z"/>
<path d="M1550 3262 c0 -9 14 -12 50 -10 63 4 61 23 -2 23 -33 0 -48 -4 -48
-13z"/>
<path d="M1279 3216 c-2 -3 -40 -14 -84 -26 -86 -23 -125 -44 -54 -29 78 16
159 42 159 51 0 8 -14 11 -21 4z"/>
<path d="M862 3007 c-44 -31 -67 -53 -58 -55 13 -3 70 35 146 95 13 11 13 12
0 12 -8 0 -48 -24 -88 -52z"/>
<path d="M1650 2786 c-100 -58 -165 -108 -278 -212 -87 -80 -151 -158 -140
-169 2 -3 32 26 66 64 79 88 209 198 340 285 56 38 102 70 102 72 0 10 -21 1
-90 -40z"/>
<path d="M1450 1454 c-131 -23 -219 -45 -226 -55 -3 -6 11 -7 38 -3 71 10 281
53 313 63 30 9 29 9 -10 9 -22 0 -74 -7 -115 -14z"/>
<path d="M1772 1459 c5 -15 247 -104 256 -94 11 11 -16 25 -113 59 -146 50
-148 50 -143 35z"/>
</g>
</svg>
